<!--?xml version="1.0" encoding="utf-8"?-->
<!-- Generator: Adobe Illustrator 18.1.1, SVG Export Plug-In . SVG Version: 6.00 Build 0)  -->

<svg version="1.1" id="_x31_0" xmlns="http://www.w3.org/2000/svg" xmlns:xlink="http://www.w3.org/1999/xlink" x="0px" y="0px" viewBox="0 0 512 512" style="width: 256px; height: 256px; opacity: 1;" xml:space="preserve">
<style type="text/css">
	.st0{fill:#374149;}
</style>
<g>
	<path class="st0" d="M219.031,343.035V232.543c0-6.195-5.019-11.215-11.214-11.215c-6.196,0-11.215,5.02-11.215,11.215v110.492
		c0,6.195,5.019,11.215,11.215,11.215C214.012,354.25,219.031,349.23,219.031,343.035z" style="fill: rgb(225, 86, 75);"></path>
	<path class="st0" d="M304.187,354.25c6.192,0,11.215-5.02,11.215-11.215V232.543c0-6.195-5.023-11.215-11.215-11.215
		c-6.195,0-11.214,5.02-11.214,11.215v110.492C292.973,349.23,297.992,354.25,304.187,354.25z" style="fill: rgb(225, 86, 75);"></path>
	<path class="st0" d="M253.926,354.25c6.191,0,11.215-5.02,11.215-11.215V232.543c0-6.195-5.024-11.215-11.215-11.215
		c-6.195,0-11.218,5.02-11.218,11.215v110.492C242.707,349.23,247.73,354.25,253.926,354.25z" style="fill: rgb(225, 86, 75);"></path>
	<path class="st0" d="M256,0C114.617,0,0,114.614,0,256s114.617,256,256,256c141.386,0,256-114.614,256-256S397.386,0,256,0z
		 M152.57,343.867V188.094h206.863v155.774c0,29.594-23.992,53.586-53.586,53.586h-99.696
		C176.558,397.453,152.57,373.461,152.57,343.867z M373.418,171.16H138.586v-25.754h66.688c10.195-0.359,18.382-10.321,18.382-22.59
		c0-0.032,0-0.059,0-0.09c-0.011-4.457,2.786-8.176,6.508-8.176h32.95h18.726c3.718,0,6.519,3.719,6.504,8.176
		c0,0.031,0,0.058,0,0.09c0,12.269,8.191,22.23,18.382,22.59h66.691V171.16z" style="fill: rgb(225, 86, 75);"></path>
</g>
</svg>
