<!--?xml version="1.0" encoding="utf-8"?-->
<!-- Generator: Adobe Illustrator 18.1.1, SVG Export Plug-In . SVG Version: 6.00 Build 0)  -->

<svg version="1.1" id="_x31_0" xmlns="http://www.w3.org/2000/svg" xmlns:xlink="http://www.w3.org/1999/xlink" x="0px" y="0px" viewBox="0 0 512 512" style="width: 256px; height: 256px; opacity: 1;" xml:space="preserve">
<style type="text/css">
	.st0{fill:#374149;}
</style>
<g>
	<path class="st0" d="M394.074,35.558c-0.942-0.606-1.832-1.27-2.782-1.863l-0.004,0.004c-0.046-0.027-0.09-0.062-0.137-0.09
		L360.774,82.41l-0.981,1.574l-29.23,46.961l-0.082,0.133l0,0l-0.086,0.137c41.726,25.973,66.637,70.758,66.637,119.794
		c0,77.762-63.266,141.031-141.027,141.031c-77.766,0-141.031-63.27-141.031-141.031c0-25.895,7.258-50.989,20.394-72.754
		c1.18-1.93,2.332-3.867,3.61-5.746l27.058,30.32l15.844,17.894l0.023-0.117l0.133,0.148L217.762,56.77l11.297-51.618l-0.054,0.004
		l0.039-0.164L91.133,19.824L9.004,28.558l0.078,0.086l-0.196,0.024L61.18,85.117C22.012,131.137,0,189.898,0,251.008
		c0,141.16,114.844,256,256.004,256c141.156,0,255.996-114.84,255.996-256C512,163.164,467.95,82.93,394.074,35.558z" style="fill: rgb(244, 168, 64);"></path>
</g>
</svg>
